<svg xmlns="http://www.w3.org/2000/svg" width="660" height="144" viewBox="0 0 660 144" role="img" aria-label="Fernando Barscevicius, machine learning engineer and tech lead"><rect x="0" y="0" width="660" height="144" fill="#faf9f7"/><g fill="#181715"><path d="M77.6005859375 0V710H558.63916015625V590.96142578125H140.27978515625L216.3984375 669.52001953125V344L140.27978515625 405.75927734375H540.63916015625V288.24072265625H140.27978515625L216.3984375 350V0Z" transform="translate(4.00 58.00) scale(0.04600 -0.04600)"/><path d="M303.3193359375 -12Q222.5595703125 -12 163.019775390625 22.47998046875Q103.47998046875 56.9599609375 70.860107421875 119.93994140625Q38.240234375 182.919921875 38.240234375 267.39990234375Q38.240234375 351.8798828125 70.860107421875 414.35986328125Q103.47998046875 476.83984375 162.499755859375 511.81982421875Q221.51953125 546.7998046875 301.2392578125 546.7998046875Q378.87890625 546.7998046875 436.918701171875 512.3798828125Q494.95849609375 477.9599609375 526.618408203125 413.56005859375Q558.2783203125 349.16015625 558.2783203125 259.2001953125V229.88037109375H179.998046875Q183.55810546875 162.15966796875 216.8583984375 128.519287109375Q250.15869140625 94.87890625 305.2392578125 94.87890625Q346.19970703125 94.87890625 373.4599609375 112.899169921875Q400.72021484375 130.91943359375 411.80029296875 165.15966796875L550.75830078125 156.7197265625Q529.2783203125 78.0400390625 463.338623046875 33.02001953125Q397.39892578125 -12 303.3193359375 -12ZM179.998046875 318.27978515625H417.3203125Q413.72021484375 380.88037109375 382.179931640625 411.360595703125Q350.6396484375 441.8408203125 301.2392578125 441.8408203125Q251.7587890625 441.8408203125 219.45849609375 409.860595703125Q187.158203125 377.88037109375 179.998046875 318.27978515625Z" transform="translate(31.46 58.00) scale(0.04600 -0.04600)"/><path d="M68.48046875 0V534.7998046875H197.1982421875L202.158203125 383.5205078125L191.2783203125 386.04052734375Q203.67822265625 464.60009765625 236.938232421875 499.699951171875Q270.1982421875 534.7998046875 328.1181640625 534.7998046875H377.23828125V419.28125H327.67822265625Q286.23828125 419.28125 259.25830078125 407.6611328125Q232.2783203125 396.041015625 218.7783203125 371.140869140625Q205.2783203125 346.24072265625 205.2783203125 305.12060546875V0Z" transform="translate(58.69 58.00) scale(0.04600 -0.04600)"/><path d="M68.48046875 0V534.7998046875H192.03857421875L197.4384765625 382.04052734375L180.71875 387.6806640625Q188.798828125 445.240234375 213.558837890625 480.06005859375Q238.31884765625 514.8798828125 274.77880859375 530.83984375Q311.23876953125 546.7998046875 354.638671875 546.7998046875Q413.23876953125 546.7998046875 453.69873046875 521.23974609375Q494.15869140625 495.6796875 515.338623046875 450.1796875Q536.5185546875 404.6796875 536.5185546875 343.8798828125V0H399.720703125V299.24072265625Q399.720703125 343.44091796875 391.58056640625 374.06103515625Q383.4404296875 404.68115234375 363.960205078125 420.7412109375Q344.47998046875 436.80126953125 311.19970703125 436.80126953125Q261.71923828125 436.80126953125 233.498779296875 401.421142578125Q205.2783203125 366.041015625 205.2783203125 299.24072265625V0Z" transform="translate(77.55 58.00) scale(0.04600 -0.04600)"/><path d="M224.919921875 -12Q141.47998046875 -12 89.860107421875 26.47998046875Q38.240234375 64.9599609375 38.240234375 133.919921875Q38.240234375 203.83984375 81.840087890625 242.599853515625Q125.43994140625 281.35986328125 212.919921875 298.7998046875L388.4404296875 333.31982421875Q388.4404296875 388.3203125 363.420166015625 416.04052734375Q338.39990234375 443.7607421875 290.279296875 443.7607421875Q245.35888671875 443.7607421875 219.838623046875 423.1005859375Q194.318359375 402.4404296875 185.67822265625 363.16015625L47.240234375 369.68017578125Q62.72021484375 455.7197265625 125.739990234375 501.259765625Q188.759765625 546.7998046875 290.279296875 546.7998046875Q406.6787109375 546.7998046875 465.95849609375 489.539794921875Q525.23828125 432.27978515625 525.23828125 324.080078125V134.35888671875Q525.23828125 112.51904296875 532.6982421875 104.779052734375Q540.158203125 97.0390625 555.158203125 97.0390625H571.3583984375V0Q564.95849609375 -1.9599609375 550.6787109375 -3.419921875Q536.39892578125 -4.8798828125 522.0791015625 -4.8798828125Q489.43896484375 -4.8798828125 462.859130859375 5.900146484375Q436.279296875 16.68017578125 420.99951171875 43.10009765625Q405.7197265625 69.52001953125 405.7197265625 116.7197265625L417.6396484375 108Q408.7197265625 72.56005859375 382.6796875 45.300048828125Q356.6396484375 18.0400390625 316.399658203125 3.02001953125Q276.15966796875 -12 224.919921875 -12ZM254.9990234375 85.0390625Q295.51953125 85.0390625 325.33984375 100.979248046875Q355.16015625 116.91943359375 371.80029296875 146.1796875Q388.4404296875 175.43994140625 388.4404296875 215.1201171875V243.5205078125L256.7587890625 216.3203125Q216.67822265625 208.240234375 198.09814453125 191.10009765625Q179.51806640625 173.9599609375 179.51806640625 146.7197265625Q179.51806640625 117.3994140625 199.058349609375 101.21923828125Q218.5986328125 85.0390625 254.9990234375 85.0390625Z" transform="translate(105.15 58.00) scale(0.04600 -0.04600)"/><path d="M68.48046875 0V534.7998046875H192.03857421875L197.4384765625 382.04052734375L180.71875 387.6806640625Q188.798828125 445.240234375 213.558837890625 480.06005859375Q238.31884765625 514.8798828125 274.77880859375 530.83984375Q311.23876953125 546.7998046875 354.638671875 546.7998046875Q413.23876953125 546.7998046875 453.69873046875 521.23974609375Q494.15869140625 495.6796875 515.338623046875 450.1796875Q536.5185546875 404.6796875 536.5185546875 343.8798828125V0H399.720703125V299.24072265625Q399.720703125 343.44091796875 391.58056640625 374.06103515625Q383.4404296875 404.68115234375 363.960205078125 420.7412109375Q344.47998046875 436.80126953125 311.19970703125 436.80126953125Q261.71923828125 436.80126953125 233.498779296875 401.421142578125Q205.2783203125 366.041015625 205.2783203125 299.24072265625V0Z" transform="translate(131.88 58.00) scale(0.04600 -0.04600)"/><path d="M258.88037109375 -12Q190.84033203125 -12 141.30029296875 22.239990234375Q91.76025390625 56.47998046875 65.000244140625 119.199951171875Q38.240234375 181.919921875 38.240234375 267.39990234375Q38.240234375 352.8798828125 65.240234375 415.599853515625Q92.240234375 478.31982421875 142.020263671875 512.559814453125Q191.80029296875 546.7998046875 258.88037109375 546.7998046875Q315.240234375 546.7998046875 357.3203125 523.579833984375Q399.400390625 500.35986328125 420.92041015625 458.8798828125V710H557.71826171875V0H427.48046875L424.48046875 79.0400390625Q402.48046875 36.0400390625 358.680419921875 12.02001953125Q314.88037109375 -12 258.88037109375 -12ZM301.79931640625 96.31884765625Q340.15966796875 96.31884765625 366.659912109375 115.9990234375Q393.16015625 135.67919921875 407.040283203125 173.939453125Q420.92041015625 212.19970703125 420.92041015625 267.39990234375Q420.92041015625 323.64013671875 407.040283203125 361.640380859375Q393.16015625 399.640625 366.659912109375 419.060791015625Q340.15966796875 438.48095703125 301.79931640625 438.48095703125Q245.71875 438.48095703125 212.618408203125 392.70068359375Q179.51806640625 346.92041015625 179.51806640625 267.39990234375Q179.51806640625 189.359375 212.8583984375 142.839111328125Q246.19873046875 96.31884765625 301.79931640625 96.31884765625Z" transform="translate(159.48 58.00) scale(0.04600 -0.04600)"/><path d="M304.75927734375 -12Q224.5595703125 -12 164.519775390625 22.47998046875Q104.47998046875 56.9599609375 71.360107421875 119.93994140625Q38.240234375 182.919921875 38.240234375 267.39990234375Q38.240234375 352.39990234375 71.360107421875 414.8798828125Q104.47998046875 477.35986328125 164.519775390625 512.079833984375Q224.5595703125 546.7998046875 304.75927734375 546.7998046875Q384.958984375 546.7998046875 444.73876953125 512.079833984375Q504.5185546875 477.35986328125 537.638427734375 414.8798828125Q570.75830078125 352.39990234375 570.75830078125 267.39990234375Q570.75830078125 182.919921875 537.638427734375 119.93994140625Q504.5185546875 56.9599609375 444.73876953125 22.47998046875Q384.958984375 -12 304.75927734375 -12ZM304.75927734375 96.31884765625Q364.31982421875 96.31884765625 396.900146484375 141.379150390625Q429.48046875 186.439453125 429.48046875 267.39990234375Q429.48046875 347.88037109375 396.900146484375 393.1806640625Q364.31982421875 438.48095703125 304.75927734375 438.48095703125Q245.19873046875 438.48095703125 212.3583984375 393.1806640625Q179.51806640625 347.88037109375 179.51806640625 267.39990234375Q179.51806640625 186.439453125 212.3583984375 141.379150390625Q245.19873046875 96.31884765625 304.75927734375 96.31884765625Z" transform="translate(188.05 58.00) scale(0.04600 -0.04600)"/><path d="M77.6005859375 0V710H347.51953125Q478.3193359375 710 546.839111328125 663.760009765625Q615.35888671875 617.52001953125 615.35888671875 517.56005859375Q615.35888671875 473 597.038818359375 439.919921875Q578.71875 406.83984375 543.638671875 387.81982421875Q508.55859375 368.7998046875 458.99853515625 365.919921875L458.478515625 368.080078125Q548.5185546875 363.76025390625 596.938720703125 317.66015625Q645.35888671875 271.56005859375 645.35888671875 195.47998046875Q645.35888671875 97.0400390625 577.0791015625 48.52001953125Q508.79931640625 0 382.7197265625 0ZM216.3984375 115.6787109375H376.47998046875Q435.08056640625 115.6787109375 469.78076171875 139.678955078125Q504.48095703125 163.67919921875 504.48095703125 211.03955078125Q504.48095703125 258.39990234375 470.020751953125 283.420166015625Q435.560546875 308.4404296875 376.47998046875 308.4404296875H216.3984375ZM216.3984375 413.5595703125H343.6796875Q404.400390625 413.5595703125 439.440673828125 436.81982421875Q474.48095703125 460.080078125 474.48095703125 503.96044921875Q474.48095703125 550.36083984375 440.460693359375 572.341064453125Q406.4404296875 594.3212890625 343.6796875 594.3212890625H216.3984375Z" transform="translate(226.32 58.00) scale(0.04600 -0.04600)"/><path d="M224.919921875 -12Q141.47998046875 -12 89.860107421875 26.47998046875Q38.240234375 64.9599609375 38.240234375 133.919921875Q38.240234375 203.83984375 81.840087890625 242.599853515625Q125.43994140625 281.35986328125 212.919921875 298.7998046875L388.4404296875 333.31982421875Q388.4404296875 388.3203125 363.420166015625 416.04052734375Q338.39990234375 443.7607421875 290.279296875 443.7607421875Q245.35888671875 443.7607421875 219.838623046875 423.1005859375Q194.318359375 402.4404296875 185.67822265625 363.16015625L47.240234375 369.68017578125Q62.72021484375 455.7197265625 125.739990234375 501.259765625Q188.759765625 546.7998046875 290.279296875 546.7998046875Q406.6787109375 546.7998046875 465.95849609375 489.539794921875Q525.23828125 432.27978515625 525.23828125 324.080078125V134.35888671875Q525.23828125 112.51904296875 532.6982421875 104.779052734375Q540.158203125 97.0390625 555.158203125 97.0390625H571.3583984375V0Q564.95849609375 -1.9599609375 550.6787109375 -3.419921875Q536.39892578125 -4.8798828125 522.0791015625 -4.8798828125Q489.43896484375 -4.8798828125 462.859130859375 5.900146484375Q436.279296875 16.68017578125 420.99951171875 43.10009765625Q405.7197265625 69.52001953125 405.7197265625 116.7197265625L417.6396484375 108Q408.7197265625 72.56005859375 382.6796875 45.300048828125Q356.6396484375 18.0400390625 316.399658203125 3.02001953125Q276.15966796875 -12 224.919921875 -12ZM254.9990234375 85.0390625Q295.51953125 85.0390625 325.33984375 100.979248046875Q355.16015625 116.91943359375 371.80029296875 146.1796875Q388.4404296875 175.43994140625 388.4404296875 215.1201171875V243.5205078125L256.7587890625 216.3203125Q216.67822265625 208.240234375 198.09814453125 191.10009765625Q179.51806640625 173.9599609375 179.51806640625 146.7197265625Q179.51806640625 117.3994140625 199.058349609375 101.21923828125Q218.5986328125 85.0390625 254.9990234375 85.0390625Z" transform="translate(258.20 58.00) scale(0.04600 -0.04600)"/><path d="M68.48046875 0V534.7998046875H197.1982421875L202.158203125 383.5205078125L191.2783203125 386.04052734375Q203.67822265625 464.60009765625 236.938232421875 499.699951171875Q270.1982421875 534.7998046875 328.1181640625 534.7998046875H377.23828125V419.28125H327.67822265625Q286.23828125 419.28125 259.25830078125 407.6611328125Q232.2783203125 396.041015625 218.7783203125 371.140869140625Q205.2783203125 346.24072265625 205.2783203125 305.12060546875V0Z" transform="translate(284.92 58.00) scale(0.04600 -0.04600)"/><path d="M290.279296875 -12Q209.6796875 -12 155.139892578125 11.239990234375Q100.60009765625 34.47998046875 71.420166015625 75.219970703125Q42.240234375 115.9599609375 38.240234375 168.43994140625L177.59814453125 173.9599609375Q184.63818359375 133.6396484375 211.3984375 111.37939453125Q238.15869140625 89.119140625 290.75927734375 89.119140625Q333.7197265625 89.119140625 358.06005859375 103.019287109375Q382.400390625 116.91943359375 382.400390625 146.31982421875Q382.400390625 163.9599609375 373.84033203125 175.800048828125Q365.2802734375 187.64013671875 340.840087890625 196.460205078125Q316.39990234375 205.2802734375 268.51953125 213.3603515625Q185.31982421875 227.84033203125 137.97998046875 248.100341796875Q90.64013671875 268.3603515625 70.940185546875 299.8203125Q51.240234375 331.2802734375 51.240234375 377.1201171875Q51.240234375 452.919921875 109.47998046875 499.85986328125Q167.7197265625 546.7998046875 281.958984375 546.7998046875Q355.5986328125 546.7998046875 405.618408203125 523.059814453125Q455.63818359375 499.31982421875 483.5380859375 458.419921875Q511.43798828125 417.52001953125 518.47802734375 365.2802734375L380.56005859375 359.2802734375Q376.47998046875 385.84033203125 363.599853515625 405.180419921875Q350.7197265625 424.5205078125 329.99951171875 435.1005859375Q309.279296875 445.6806640625 280.47900390625 445.6806640625Q237.3984375 445.6806640625 214.958251953125 428.240478515625Q192.51806640625 410.80029296875 192.51806640625 382.080078125Q192.51806640625 361.35986328125 202.6181640625 347.979736328125Q212.71826171875 334.599609375 235.91845703125 326.259521484375Q259.11865234375 317.91943359375 297.958984375 311.83935546875Q382.798828125 299.279296875 432.11865234375 278.3193359375Q481.4384765625 257.359375 502.558349609375 225.719482421875Q523.67822265625 194.07958984375 523.67822265625 148.7197265625Q523.67822265625 97.31982421875 494.498291015625 61.3798828125Q465.318359375 25.43994140625 413.05859375 6.719970703125Q360.798828125 -12 290.279296875 -12Z" transform="translate(303.78 58.00) scale(0.04600 -0.04600)"/><path d="M304.75927734375 -12Q224.03955078125 -12 164.259765625 22.47998046875Q104.47998046875 56.9599609375 71.360107421875 119.93994140625Q38.240234375 182.919921875 38.240234375 267.39990234375Q38.240234375 351.8798828125 71.360107421875 414.35986328125Q104.47998046875 476.83984375 164.259765625 511.81982421875Q224.03955078125 546.7998046875 304.75927734375 546.7998046875Q373.9189453125 546.7998046875 428.378662109375 522.419921875Q482.83837890625 498.0400390625 516.918212890625 452.480224609375Q550.998046875 406.92041015625 559.0380859375 342.16064453125L417.76025390625 335.20068359375Q410.2001953125 385.80078125 379.919921875 411.90087890625Q349.6396484375 438.0009765625 304.75927734375 438.0009765625Q245.19873046875 438.0009765625 212.3583984375 392.940673828125Q179.51806640625 347.88037109375 179.51806640625 267.39990234375Q179.51806640625 186.439453125 212.3583984375 141.379150390625Q245.19873046875 96.31884765625 304.75927734375 96.31884765625Q350.11962890625 96.31884765625 380.639892578125 123.198974609375Q411.16015625 150.0791015625 417.76025390625 205.75927734375L559.0380859375 199.75927734375Q551.47802734375 134.99951171875 517.878173828125 87.419677734375Q484.2783203125 39.83984375 429.818603515625 13.919921875Q375.35888671875 -12 304.75927734375 -12Z" transform="translate(329.40 58.00) scale(0.04600 -0.04600)"/><path d="M303.3193359375 -12Q222.5595703125 -12 163.019775390625 22.47998046875Q103.47998046875 56.9599609375 70.860107421875 119.93994140625Q38.240234375 182.919921875 38.240234375 267.39990234375Q38.240234375 351.8798828125 70.860107421875 414.35986328125Q103.47998046875 476.83984375 162.499755859375 511.81982421875Q221.51953125 546.7998046875 301.2392578125 546.7998046875Q378.87890625 546.7998046875 436.918701171875 512.3798828125Q494.95849609375 477.9599609375 526.618408203125 413.56005859375Q558.2783203125 349.16015625 558.2783203125 259.2001953125V229.88037109375H179.998046875Q183.55810546875 162.15966796875 216.8583984375 128.519287109375Q250.15869140625 94.87890625 305.2392578125 94.87890625Q346.19970703125 94.87890625 373.4599609375 112.899169921875Q400.72021484375 130.91943359375 411.80029296875 165.15966796875L550.75830078125 156.7197265625Q529.2783203125 78.0400390625 463.338623046875 33.02001953125Q397.39892578125 -12 303.3193359375 -12ZM179.998046875 318.27978515625H417.3203125Q413.72021484375 380.88037109375 382.179931640625 411.360595703125Q350.6396484375 441.8408203125 301.2392578125 441.8408203125Q251.7587890625 441.8408203125 219.45849609375 409.860595703125Q187.158203125 377.88037109375 179.998046875 318.27978515625Z" transform="translate(356.18 58.00) scale(0.04600 -0.04600)"/><path d="M216.43994140625 0 21.0400390625 534.7998046875H164.8779296875L297.27880859375 137.837890625L429.19970703125 534.7998046875H573.03759765625L377.15771484375 0Z" transform="translate(383.41 58.00) scale(0.04600 -0.04600)"/><path d="M68.48046875 0V534.7998046875H205.2783203125V0ZM66.00048828125 603.88037109375V720.11962890625H207.75830078125V603.88037109375Z" transform="translate(410.50 58.00) scale(0.04600 -0.04600)"/><path d="M304.75927734375 -12Q224.03955078125 -12 164.259765625 22.47998046875Q104.47998046875 56.9599609375 71.360107421875 119.93994140625Q38.240234375 182.919921875 38.240234375 267.39990234375Q38.240234375 351.8798828125 71.360107421875 414.35986328125Q104.47998046875 476.83984375 164.259765625 511.81982421875Q224.03955078125 546.7998046875 304.75927734375 546.7998046875Q373.9189453125 546.7998046875 428.378662109375 522.419921875Q482.83837890625 498.0400390625 516.918212890625 452.480224609375Q550.998046875 406.92041015625 559.0380859375 342.16064453125L417.76025390625 335.20068359375Q410.2001953125 385.80078125 379.919921875 411.90087890625Q349.6396484375 438.0009765625 304.75927734375 438.0009765625Q245.19873046875 438.0009765625 212.3583984375 392.940673828125Q179.51806640625 347.88037109375 179.51806640625 267.39990234375Q179.51806640625 186.439453125 212.3583984375 141.379150390625Q245.19873046875 96.31884765625 304.75927734375 96.31884765625Q350.11962890625 96.31884765625 380.639892578125 123.198974609375Q411.16015625 150.0791015625 417.76025390625 205.75927734375L559.0380859375 199.75927734375Q551.47802734375 134.99951171875 517.878173828125 87.419677734375Q484.2783203125 39.83984375 429.818603515625 13.919921875Q375.35888671875 -12 304.75927734375 -12Z" transform="translate(422.88 58.00) scale(0.04600 -0.04600)"/><path d="M68.48046875 0V534.7998046875H205.2783203125V0ZM66.00048828125 603.88037109375V720.11962890625H207.75830078125V603.88037109375Z" transform="translate(449.65 58.00) scale(0.04600 -0.04600)"/><path d="M244.400390625 -12Q162.5205078125 -12 115.50048828125 41.5Q68.48046875 95 68.48046875 190.43994140625V534.7998046875H205.2783203125V223.51953125Q205.2783203125 158.51904296875 226.298583984375 128.2587890625Q247.31884765625 97.99853515625 291.359375 97.99853515625Q340.919921875 97.99853515625 368.2802734375 131.298828125Q395.640625 164.59912109375 395.640625 229.359375V534.7998046875H532.4384765625V0H407.3203125L403.96044921875 149.71923828125L421.2802734375 145.119140625Q409.1201171875 67.6396484375 364.1201171875 27.81982421875Q319.1201171875 -12 244.400390625 -12Z" transform="translate(462.02 58.00) scale(0.04600 -0.04600)"/><path d="M290.279296875 -12Q209.6796875 -12 155.139892578125 11.239990234375Q100.60009765625 34.47998046875 71.420166015625 75.219970703125Q42.240234375 115.9599609375 38.240234375 168.43994140625L177.59814453125 173.9599609375Q184.63818359375 133.6396484375 211.3984375 111.37939453125Q238.15869140625 89.119140625 290.75927734375 89.119140625Q333.7197265625 89.119140625 358.06005859375 103.019287109375Q382.400390625 116.91943359375 382.400390625 146.31982421875Q382.400390625 163.9599609375 373.84033203125 175.800048828125Q365.2802734375 187.64013671875 340.840087890625 196.460205078125Q316.39990234375 205.2802734375 268.51953125 213.3603515625Q185.31982421875 227.84033203125 137.97998046875 248.100341796875Q90.64013671875 268.3603515625 70.940185546875 299.8203125Q51.240234375 331.2802734375 51.240234375 377.1201171875Q51.240234375 452.919921875 109.47998046875 499.85986328125Q167.7197265625 546.7998046875 281.958984375 546.7998046875Q355.5986328125 546.7998046875 405.618408203125 523.059814453125Q455.63818359375 499.31982421875 483.5380859375 458.419921875Q511.43798828125 417.52001953125 518.47802734375 365.2802734375L380.56005859375 359.2802734375Q376.47998046875 385.84033203125 363.599853515625 405.180419921875Q350.7197265625 424.5205078125 329.99951171875 435.1005859375Q309.279296875 445.6806640625 280.47900390625 445.6806640625Q237.3984375 445.6806640625 214.958251953125 428.240478515625Q192.51806640625 410.80029296875 192.51806640625 382.080078125Q192.51806640625 361.35986328125 202.6181640625 347.979736328125Q212.71826171875 334.599609375 235.91845703125 326.259521484375Q259.11865234375 317.91943359375 297.958984375 311.83935546875Q382.798828125 299.279296875 432.11865234375 278.3193359375Q481.4384765625 257.359375 502.558349609375 225.719482421875Q523.67822265625 194.07958984375 523.67822265625 148.7197265625Q523.67822265625 97.31982421875 494.498291015625 61.3798828125Q465.318359375 25.43994140625 413.05859375 6.719970703125Q360.798828125 -12 290.279296875 -12Z" transform="translate(489.44 58.00) scale(0.04600 -0.04600)"/></g><g fill="#964520"><path d="M69.74945068359375 -110 422.64923095703125 830H530.2505493164062L177.35076904296875 -110Z" transform="translate(5.00 95.00) scale(0.01650 -0.01650)"/><path d="M69.74945068359375 -110 422.64923095703125 830H530.2505493164062L177.35076904296875 -110Z" transform="translate(14.90 95.00) scale(0.01650 -0.01650)"/></g><g fill="#6b6862"><path d="M60.95947265625 0V550H148.15032958984375V481.0596923828125H167.41046142578125L152.3603515625 459.159912109375Q152.3603515625 505.36993408203125 177.38540649414062 532.6849670410156Q202.41046142578125 560 243.99041748046875 560Q289.3603515625 560 314.15032958984375 525.3699340820312Q338.9403076171875 490.7398681640625 338.9403076171875 428.94989013671875L313.83050537109375 481.0596923828125H352.89019775390625L335.99041748046875 459.159912109375Q335.99041748046875 505.36993408203125 361.5954284667969 532.6849670410156Q387.200439453125 560 429.6204833984375 560Q481.200439453125 560 510.2254943847656 521.3150329589844Q539.2505493164062 482.63006591796875 539.2505493164062 418.4200439453125V0H446.58953857421875V417.10980224609375Q446.58953857421875 448.799560546875 433.0346374511719 466.4344177246094Q419.479736328125 484.06927490234375 393.36993408203125 484.06927490234375Q368.05010986328125 484.06927490234375 353.7052307128906 466.82940673828125Q339.3603515625 449.58953857421875 339.3603515625 417.8997802734375V0H260.84967041015625V417.10980224609375Q260.84967041015625 449.58953857421875 246.50479125976562 466.82940673828125Q232.159912109375 484.06927490234375 206.05010986328125 484.06927490234375Q179.9403076171875 484.06927490234375 166.7803955078125 466.82940673828125Q153.6204833984375 449.58953857421875 153.6204833984375 417.8997802734375V0Z" transform="translate(34.70 95.00) scale(0.01650 -0.01650)"/><path d="M247.2275162633755 -10Q161.00958251953125 -10 111.32461547851562 34.61328457919034Q61.6396484375 79.22656915838068 61.6396484375 155.4200439453125Q61.6396484375 233.68017578125 113.21481323242188 277.7851867675781Q164.78997802734375 321.89019775390625 254.6204833984375 321.89019775390625H412.8592529296875V373.94989013671875Q412.8592529296875 420.95947265625 384.0394287109375 446.6742858886719Q355.2196044921875 472.38909912109375 303 472.38909912109375Q257.04257918648096 472.38909912109375 226.09166312839673 452.8341979980469Q195.1407470703125 433.279296875 190.1407470703125 399.74945068359375H88.58953857421875Q97.58953857421875 473.26971435546875 156.74465942382812 516.6348571777344Q215.8997802734375 560 305.63006591796875 560Q402.73028564453125 560 459.0954284667969 510.4749450683594Q515.4605712890625 460.94989013671875 515.4605712890625 376.31982421875V0H415.48931884765625V101.84967041015625H398.59912109375L415.6993408203125 121.05010986328125Q415.6993408203125 60.56544377253606 369.6173417503268 25.28272188626803Q323.5353426803411 -10 247.2275162633755 -10ZM276.31024169921875 69.19085693359375Q336.1673425125749 69.19085693359375 374.5132977211312 99.40567016601562Q412.8592529296875 129.6204833984375 412.8592529296875 177.07724857330322V251.10980224609375H256.83050537109375Q214.1407470703125 251.10980224609375 189.19085693359375 227.26492309570312Q164.240966796875 203.4200439453125 164.240966796875 162.77317745584838Q164.240966796875 119.29048307177047 193.90636309455422 94.24067000268211Q223.57175939223345 69.19085693359375 276.31024169921875 69.19085693359375Z" transform="translate(44.60 95.00) scale(0.01650 -0.01650)"/><path d="M303.78997802734375 -10Q236.31982421875 -10 185.66470336914062 15.525054931640625Q135.00958251953125 41.05010986328125 107.3795166015625 88.97015380859375Q79.74945068359375 136.89019775390625 79.74945068359375 202.1002197265625V347.8997802734375Q79.74945068359375 414.10980224609375 107.3795166015625 461.52984619140625Q135.00958251953125 508.94989013671875 185.66470336914062 534.4749450683594Q236.31982421875 560 303.78997802734375 560Q401.73028564453125 560 461.200439453125 508.159912109375Q520.6705932617188 456.31982421875 523.880615234375 366.84967041015625H421.279296875Q418.279296875 416.06927490234375 387.45947265625 442.7840881347656Q356.6396484375 469.4989013671875 303.78997802734375 469.4989013671875Q247.73028564453125 469.4989013671875 215.04052734375 438.2041320800781Q182.35076904296875 406.90936279296875 182.35076904296875 348.68975830078125V202.1002197265625Q182.35076904296875 144.09063720703125 215.04052734375 112.29586791992188Q247.73028564453125 80.5010986328125 303.78997802734375 80.5010986328125Q356.6396484375 80.5010986328125 387.45947265625 107.50588989257812Q418.279296875 134.51068115234375 421.279296875 183.15032958984375H523.880615234375Q520.6705932617188 93.68017578125 461.200439453125 41.840087890625Q401.73028564453125 -10 303.78997802734375 -10Z" transform="translate(54.50 95.00) scale(0.01650 -0.01650)"/><path d="M86.5394287109375 0V730H189.1407470703125V550L188.09063720703125 445H212.3411865234375L188.09063720703125 421.0596923828125Q188.09063720703125 487.10980224609375 227.3006591796875 523.5549011230469Q266.51068115234375 560 335.3006591796875 560Q417.67059326171875 560 466.5655822753906 507.94989013671875Q515.4605712890625 455.8997802734375 515.4605712890625 366.84967041015625V0H412.8592529296875V355.799560546875Q412.8592529296875 411.439208984375 383.24945068359375 442.04901123046875Q353.6396484375 472.6588134765625 302.36993408203125 472.6588134765625Q249.73028564453125 472.6588134765625 219.43551635742188 440.0740661621094Q189.1407470703125 407.48931884765625 189.1407470703125 347.8997802734375V0Z" transform="translate(64.40 95.00) scale(0.01650 -0.01650)"/><path d="M81.84967041015625 0V93.3411865234375H275.799560546875V456.86883544921875H106.84967041015625V550H376.3006591796875V93.3411865234375H556.0501098632812V0ZM316.05010986328125 646.479736328125Q281.36993408203125 646.479736328125 261.2148132324219 664.329825265067Q241.0596923828125 682.179914202009 241.0596923828125 712.6300659179688Q241.0596923828125 743.8901977539062 261.2148132324219 762.1252746582031Q281.36993408203125 780.3603515625 316.05010986328125 780.3603515625Q350.73028564453125 780.3603515625 370.8854064941406 762.1252746582031Q391.04052734375 743.8901977539062 391.04052734375 712.6300659179688Q391.04052734375 682.179914202009 370.8854064941406 664.329825265067Q350.73028564453125 646.479736328125 316.05010986328125 646.479736328125Z" transform="translate(74.30 95.00) scale(0.01650 -0.01650)"/><path d="M86.5394287109375 0V550H188.09063720703125V445H212.3411865234375L188.09063720703125 421.0596923828125Q188.09063720703125 487.10980224609375 227.3006591796875 523.5549011230469Q266.51068115234375 560 335.3006591796875 560Q417.67059326171875 560 466.5655822753906 507.94989013671875Q515.4605712890625 455.8997802734375 515.4605712890625 366.84967041015625V0H412.8592529296875V355.799560546875Q412.8592529296875 411.439208984375 383.24945068359375 441.259033203125Q353.6396484375 471.078857421875 302.36993408203125 471.078857421875Q249.73028564453125 471.078857421875 219.43551635742188 439.2840881347656Q189.1407470703125 407.48931884765625 189.1407470703125 347.8997802734375V0Z" transform="translate(84.20 95.00) scale(0.01650 -0.01650)"/><path d="M300.21002197265625 -10Q233.52984619140625 -10 183.76971435546875 16.315032958984375Q134.00958251953125 42.63006591796875 106.8795166015625 90.55010986328125Q79.74945068359375 138.47015380859375 79.74945068359375 202.1002197265625V347.8997802734375Q79.74945068359375 412.31982421875 106.8795166015625 459.8448791503906Q134.00958251953125 507.36993408203125 183.76971435546875 533.6849670410156Q233.52984619140625 560 300.21002197265625 560Q366.89019775390625 560 416.4403076171875 533.6849670410156Q465.99041748046875 507.36993408203125 493.1204833984375 459.8448791503906Q520.2505493164062 412.31982421875 520.2505493164062 347.8997802734375V250.26971435546875H179.3006591796875V202.1002197265625Q179.3006591796875 139.83050537109375 210.6204833984375 107.01068115234375Q241.9403076171875 74.19085693359375 300.63006591796875 74.19085693359375Q349.0596923828125 74.19085693359375 378.8544616699219 91.32571411132812Q408.64923095703125 108.4605712890625 415.64923095703125 142.1002197265625H517.6204833984375Q506.73028564453125 72.47015380859375 447.18017578125 31.235076904296875Q387.63006591796875 -10 300.21002197265625 -10ZM420.6993408203125 313.840087890625V348.31982421875Q420.6993408203125 410.3795166015625 390.08953857421875 443.6993408203125Q359.479736328125 477.0191650390625 300.21002197265625 477.0191650390625Q241.73028564453125 477.0191650390625 210.51547241210938 443.48931884765625Q179.3006591796875 409.95947265625 179.3006591796875 347.8997802734375V321.840087890625L428.32940673828125 322.2601318359375Z" transform="translate(94.10 95.00) scale(0.01650 -0.01650)"/><path d="M378.15032958984375 0Q328.05010986328125 0 290.36993408203125 20.155120849609375Q252.68975830078125 40.31024169921875 231.74465942382812 77.200439453125Q210.799560546875 114.09063720703125 210.799560546875 163.40087890625V636.8688354492188H28.94989013671875V730H313.40087890625V163.40087890625Q313.40087890625 130.87103271484375 331.8758239746094 112.0010986328125Q350.35076904296875 93.13116455078125 381.3006591796875 93.13116455078125H553.1503295898438V0Z" transform="translate(113.90 95.00) scale(0.01650 -0.01650)"/><path d="M300.21002197265625 -10Q233.52984619140625 -10 183.76971435546875 16.315032958984375Q134.00958251953125 42.63006591796875 106.8795166015625 90.55010986328125Q79.74945068359375 138.47015380859375 79.74945068359375 202.1002197265625V347.8997802734375Q79.74945068359375 412.31982421875 106.8795166015625 459.8448791503906Q134.00958251953125 507.36993408203125 183.76971435546875 533.6849670410156Q233.52984619140625 560 300.21002197265625 560Q366.89019775390625 560 416.4403076171875 533.6849670410156Q465.99041748046875 507.36993408203125 493.1204833984375 459.8448791503906Q520.2505493164062 412.31982421875 520.2505493164062 347.8997802734375V250.26971435546875H179.3006591796875V202.1002197265625Q179.3006591796875 139.83050537109375 210.6204833984375 107.01068115234375Q241.9403076171875 74.19085693359375 300.63006591796875 74.19085693359375Q349.0596923828125 74.19085693359375 378.8544616699219 91.32571411132812Q408.64923095703125 108.4605712890625 415.64923095703125 142.1002197265625H517.6204833984375Q506.73028564453125 72.47015380859375 447.18017578125 31.235076904296875Q387.63006591796875 -10 300.21002197265625 -10ZM420.6993408203125 313.840087890625V348.31982421875Q420.6993408203125 410.3795166015625 390.08953857421875 443.6993408203125Q359.479736328125 477.0191650390625 300.21002197265625 477.0191650390625Q241.73028564453125 477.0191650390625 210.51547241210938 443.48931884765625Q179.3006591796875 409.95947265625 179.3006591796875 347.8997802734375V321.840087890625L428.32940673828125 322.2601318359375Z" transform="translate(123.80 95.00) scale(0.01650 -0.01650)"/><path d="M247.2275162633755 -10Q161.00958251953125 -10 111.32461547851562 34.61328457919034Q61.6396484375 79.22656915838068 61.6396484375 155.4200439453125Q61.6396484375 233.68017578125 113.21481323242188 277.7851867675781Q164.78997802734375 321.89019775390625 254.6204833984375 321.89019775390625H412.8592529296875V373.94989013671875Q412.8592529296875 420.95947265625 384.0394287109375 446.6742858886719Q355.2196044921875 472.38909912109375 303 472.38909912109375Q257.04257918648096 472.38909912109375 226.09166312839673 452.8341979980469Q195.1407470703125 433.279296875 190.1407470703125 399.74945068359375H88.58953857421875Q97.58953857421875 473.26971435546875 156.74465942382812 516.6348571777344Q215.8997802734375 560 305.63006591796875 560Q402.73028564453125 560 459.0954284667969 510.4749450683594Q515.4605712890625 460.94989013671875 515.4605712890625 376.31982421875V0H415.48931884765625V101.84967041015625H398.59912109375L415.6993408203125 121.05010986328125Q415.6993408203125 60.56544377253606 369.6173417503268 25.28272188626803Q323.5353426803411 -10 247.2275162633755 -10ZM276.31024169921875 69.19085693359375Q336.1673425125749 69.19085693359375 374.5132977211312 99.40567016601562Q412.8592529296875 129.6204833984375 412.8592529296875 177.07724857330322V251.10980224609375H256.83050537109375Q214.1407470703125 251.10980224609375 189.19085693359375 227.26492309570312Q164.240966796875 203.4200439453125 164.240966796875 162.77317745584838Q164.240966796875 119.29048307177047 193.90636309455422 94.24067000268211Q223.57175939223345 69.19085693359375 276.31024169921875 69.19085693359375Z" transform="translate(133.70 95.00) scale(0.01650 -0.01650)"/><path d="M104.90936279296875 0V550H203.83050537109375V445H228.40087890625L196.4605712890625 380.21002197265625Q196.4605712890625 469.21002197265625 235.48562622070312 514.6050109863281Q274.51068115234375 560 351.1407470703125 560Q438.9808349609375 560 490.27081298828125 505.3949890136719Q541.560791015625 450.78997802734375 541.560791015625 356.31982421875V320.799560546875H436.8592529296875V347.8997802734375Q436.8592529296875 408.6993408203125 406.82940673828125 441.2041320800781Q376.799560546875 473.70892333984375 322.36993408203125 473.70892333984375Q268.31024169921875 473.70892333984375 237.91046142578125 440.80914306640625Q207.51068115234375 407.90936279296875 207.51068115234375 347.8997802734375V0Z" transform="translate(143.60 95.00) scale(0.01650 -0.01650)"/><path d="M86.5394287109375 0V550H188.09063720703125V445H212.3411865234375L188.09063720703125 421.0596923828125Q188.09063720703125 487.10980224609375 227.3006591796875 523.5549011230469Q266.51068115234375 560 335.3006591796875 560Q417.67059326171875 560 466.5655822753906 507.94989013671875Q515.4605712890625 455.8997802734375 515.4605712890625 366.84967041015625V0H412.8592529296875V355.799560546875Q412.8592529296875 411.439208984375 383.24945068359375 441.259033203125Q353.6396484375 471.078857421875 302.36993408203125 471.078857421875Q249.73028564453125 471.078857421875 219.43551635742188 439.2840881347656Q189.1407470703125 407.48931884765625 189.1407470703125 347.8997802734375V0Z" transform="translate(153.50 95.00) scale(0.01650 -0.01650)"/><path d="M81.84967041015625 0V93.3411865234375H275.799560546875V456.86883544921875H106.84967041015625V550H376.3006591796875V93.3411865234375H556.0501098632812V0ZM316.05010986328125 646.479736328125Q281.36993408203125 646.479736328125 261.2148132324219 664.329825265067Q241.0596923828125 682.179914202009 241.0596923828125 712.6300659179688Q241.0596923828125 743.8901977539062 261.2148132324219 762.1252746582031Q281.36993408203125 780.3603515625 316.05010986328125 780.3603515625Q350.73028564453125 780.3603515625 370.8854064941406 762.1252746582031Q391.04052734375 743.8901977539062 391.04052734375 712.6300659179688Q391.04052734375 682.179914202009 370.8854064941406 664.329825265067Q350.73028564453125 646.479736328125 316.05010986328125 646.479736328125Z" transform="translate(163.40 95.00) scale(0.01650 -0.01650)"/><path d="M86.5394287109375 0V550H188.09063720703125V445H212.3411865234375L188.09063720703125 421.0596923828125Q188.09063720703125 487.10980224609375 227.3006591796875 523.5549011230469Q266.51068115234375 560 335.3006591796875 560Q417.67059326171875 560 466.5655822753906 507.94989013671875Q515.4605712890625 455.8997802734375 515.4605712890625 366.84967041015625V0H412.8592529296875V355.799560546875Q412.8592529296875 411.439208984375 383.24945068359375 441.259033203125Q353.6396484375 471.078857421875 302.36993408203125 471.078857421875Q249.73028564453125 471.078857421875 219.43551635742188 439.2840881347656Q189.1407470703125 407.48931884765625 189.1407470703125 347.8997802734375V0Z" transform="translate(173.30 95.00) scale(0.01650 -0.01650)"/><path d="M157.6396484375 -180V-90.0191650390625H328.439208984375Q370.439208984375 -90.0191650390625 390.56927490234375 -70.59912109375Q410.6993408203125 -51.1790771484375 410.6993408203125 -11.80914306640625V47.8997802734375L412.6993408203125 148.94989013671875H391.12896728515625L411.90936279296875 168.15032958984375Q411.90936279296875 105.840087890625 372.119384765625 69.89498901367188Q332.32940673828125 33.94989013671875 265.119384765625 33.94989013671875Q180.5394287109375 33.94989013671875 131.32940673828125 89.97494506835938Q82.119384765625 146 82.119384765625 241.05010986328125V353.68975830078125Q82.119384765625 448.52984619140625 131.32940673828125 504.2649230957031Q180.5394287109375 560 265.119384765625 560Q332.32940673828125 560 372.119384765625 524.0549011230469Q411.90936279296875 488.10980224609375 411.90936279296875 425.799560546875L391.12896728515625 445H411.90936279296875L410.8592529296875 550H512.6705932617188V-12.8592529296875Q512.6705932617188 -90.2196044921875 463.81024169921875 -135.10980224609375Q414.94989013671875 -180 328.6993408203125 -180ZM297.78997802734375 122.87103271484375Q350.6396484375 122.87103271484375 380.74945068359375 155.45578002929688Q410.8592529296875 188.04052734375 410.8592529296875 246.05010986328125V347.8997802734375Q410.8592529296875 405.90936279296875 380.74945068359375 438.4941101074219Q350.6396484375 471.078857421875 297.78997802734375 471.078857421875Q243.9403076171875 471.078857421875 214.33050537109375 439.2840881347656Q184.720703125 407.48931884765625 184.720703125 347.8997802734375V246.05010986328125Q184.720703125 186.4605712890625 214.33050537109375 154.66580200195312Q243.9403076171875 122.87103271484375 297.78997802734375 122.87103271484375Z" transform="translate(183.20 95.00) scale(0.01650 -0.01650)"/><path d="M300.21002197265625 -10Q233.52984619140625 -10 183.76971435546875 16.315032958984375Q134.00958251953125 42.63006591796875 106.8795166015625 90.55010986328125Q79.74945068359375 138.47015380859375 79.74945068359375 202.1002197265625V347.8997802734375Q79.74945068359375 412.31982421875 106.8795166015625 459.8448791503906Q134.00958251953125 507.36993408203125 183.76971435546875 533.6849670410156Q233.52984619140625 560 300.21002197265625 560Q366.89019775390625 560 416.4403076171875 533.6849670410156Q465.99041748046875 507.36993408203125 493.1204833984375 459.8448791503906Q520.2505493164062 412.31982421875 520.2505493164062 347.8997802734375V250.26971435546875H179.3006591796875V202.1002197265625Q179.3006591796875 139.83050537109375 210.6204833984375 107.01068115234375Q241.9403076171875 74.19085693359375 300.63006591796875 74.19085693359375Q349.0596923828125 74.19085693359375 378.8544616699219 91.32571411132812Q408.64923095703125 108.4605712890625 415.64923095703125 142.1002197265625H517.6204833984375Q506.73028564453125 72.47015380859375 447.18017578125 31.235076904296875Q387.63006591796875 -10 300.21002197265625 -10ZM420.6993408203125 313.840087890625V348.31982421875Q420.6993408203125 410.3795166015625 390.08953857421875 443.6993408203125Q359.479736328125 477.0191650390625 300.21002197265625 477.0191650390625Q241.73028564453125 477.0191650390625 210.51547241210938 443.48931884765625Q179.3006591796875 409.95947265625 179.3006591796875 347.8997802734375V321.840087890625L428.32940673828125 322.2601318359375Z" transform="translate(203.00 95.00) scale(0.01650 -0.01650)"/><path d="M86.5394287109375 0V550H188.09063720703125V445H212.3411865234375L188.09063720703125 421.0596923828125Q188.09063720703125 487.10980224609375 227.3006591796875 523.5549011230469Q266.51068115234375 560 335.3006591796875 560Q417.67059326171875 560 466.5655822753906 507.94989013671875Q515.4605712890625 455.8997802734375 515.4605712890625 366.84967041015625V0H412.8592529296875V355.799560546875Q412.8592529296875 411.439208984375 383.24945068359375 441.259033203125Q353.6396484375 471.078857421875 302.36993408203125 471.078857421875Q249.73028564453125 471.078857421875 219.43551635742188 439.2840881347656Q189.1407470703125 407.48931884765625 189.1407470703125 347.8997802734375V0Z" transform="translate(212.90 95.00) scale(0.01650 -0.01650)"/><path d="M157.6396484375 -180V-90.0191650390625H328.439208984375Q370.439208984375 -90.0191650390625 390.56927490234375 -70.59912109375Q410.6993408203125 -51.1790771484375 410.6993408203125 -11.80914306640625V47.8997802734375L412.6993408203125 148.94989013671875H391.12896728515625L411.90936279296875 168.15032958984375Q411.90936279296875 105.840087890625 372.119384765625 69.89498901367188Q332.32940673828125 33.94989013671875 265.119384765625 33.94989013671875Q180.5394287109375 33.94989013671875 131.32940673828125 89.97494506835938Q82.119384765625 146 82.119384765625 241.05010986328125V353.68975830078125Q82.119384765625 448.52984619140625 131.32940673828125 504.2649230957031Q180.5394287109375 560 265.119384765625 560Q332.32940673828125 560 372.119384765625 524.0549011230469Q411.90936279296875 488.10980224609375 411.90936279296875 425.799560546875L391.12896728515625 445H411.90936279296875L410.8592529296875 550H512.6705932617188V-12.8592529296875Q512.6705932617188 -90.2196044921875 463.81024169921875 -135.10980224609375Q414.94989013671875 -180 328.6993408203125 -180ZM297.78997802734375 122.87103271484375Q350.6396484375 122.87103271484375 380.74945068359375 155.45578002929688Q410.8592529296875 188.04052734375 410.8592529296875 246.05010986328125V347.8997802734375Q410.8592529296875 405.90936279296875 380.74945068359375 438.4941101074219Q350.6396484375 471.078857421875 297.78997802734375 471.078857421875Q243.9403076171875 471.078857421875 214.33050537109375 439.2840881347656Q184.720703125 407.48931884765625 184.720703125 347.8997802734375V246.05010986328125Q184.720703125 186.4605712890625 214.33050537109375 154.66580200195312Q243.9403076171875 122.87103271484375 297.78997802734375 122.87103271484375Z" transform="translate(222.80 95.00) scale(0.01650 -0.01650)"/><path d="M81.84967041015625 0V93.3411865234375H275.799560546875V456.86883544921875H106.84967041015625V550H376.3006591796875V93.3411865234375H556.0501098632812V0ZM316.05010986328125 646.479736328125Q281.36993408203125 646.479736328125 261.2148132324219 664.329825265067Q241.0596923828125 682.179914202009 241.0596923828125 712.6300659179688Q241.0596923828125 743.8901977539062 261.2148132324219 762.1252746582031Q281.36993408203125 780.3603515625 316.05010986328125 780.3603515625Q350.73028564453125 780.3603515625 370.8854064941406 762.1252746582031Q391.04052734375 743.8901977539062 391.04052734375 712.6300659179688Q391.04052734375 682.179914202009 370.8854064941406 664.329825265067Q350.73028564453125 646.479736328125 316.05010986328125 646.479736328125Z" transform="translate(232.70 95.00) scale(0.01650 -0.01650)"/><path d="M86.5394287109375 0V550H188.09063720703125V445H212.3411865234375L188.09063720703125 421.0596923828125Q188.09063720703125 487.10980224609375 227.3006591796875 523.5549011230469Q266.51068115234375 560 335.3006591796875 560Q417.67059326171875 560 466.5655822753906 507.94989013671875Q515.4605712890625 455.8997802734375 515.4605712890625 366.84967041015625V0H412.8592529296875V355.799560546875Q412.8592529296875 411.439208984375 383.24945068359375 441.259033203125Q353.6396484375 471.078857421875 302.36993408203125 471.078857421875Q249.73028564453125 471.078857421875 219.43551635742188 439.2840881347656Q189.1407470703125 407.48931884765625 189.1407470703125 347.8997802734375V0Z" transform="translate(242.60 95.00) scale(0.01650 -0.01650)"/><path d="M300.21002197265625 -10Q233.52984619140625 -10 183.76971435546875 16.315032958984375Q134.00958251953125 42.63006591796875 106.8795166015625 90.55010986328125Q79.74945068359375 138.47015380859375 79.74945068359375 202.1002197265625V347.8997802734375Q79.74945068359375 412.31982421875 106.8795166015625 459.8448791503906Q134.00958251953125 507.36993408203125 183.76971435546875 533.6849670410156Q233.52984619140625 560 300.21002197265625 560Q366.89019775390625 560 416.4403076171875 533.6849670410156Q465.99041748046875 507.36993408203125 493.1204833984375 459.8448791503906Q520.2505493164062 412.31982421875 520.2505493164062 347.8997802734375V250.26971435546875H179.3006591796875V202.1002197265625Q179.3006591796875 139.83050537109375 210.6204833984375 107.01068115234375Q241.9403076171875 74.19085693359375 300.63006591796875 74.19085693359375Q349.0596923828125 74.19085693359375 378.8544616699219 91.32571411132812Q408.64923095703125 108.4605712890625 415.64923095703125 142.1002197265625H517.6204833984375Q506.73028564453125 72.47015380859375 447.18017578125 31.235076904296875Q387.63006591796875 -10 300.21002197265625 -10ZM420.6993408203125 313.840087890625V348.31982421875Q420.6993408203125 410.3795166015625 390.08953857421875 443.6993408203125Q359.479736328125 477.0191650390625 300.21002197265625 477.0191650390625Q241.73028564453125 477.0191650390625 210.51547241210938 443.48931884765625Q179.3006591796875 409.95947265625 179.3006591796875 347.8997802734375V321.840087890625L428.32940673828125 322.2601318359375Z" transform="translate(252.50 95.00) scale(0.01650 -0.01650)"/><path d="M300.21002197265625 -10Q233.52984619140625 -10 183.76971435546875 16.315032958984375Q134.00958251953125 42.63006591796875 106.8795166015625 90.55010986328125Q79.74945068359375 138.47015380859375 79.74945068359375 202.1002197265625V347.8997802734375Q79.74945068359375 412.31982421875 106.8795166015625 459.8448791503906Q134.00958251953125 507.36993408203125 183.76971435546875 533.6849670410156Q233.52984619140625 560 300.21002197265625 560Q366.89019775390625 560 416.4403076171875 533.6849670410156Q465.99041748046875 507.36993408203125 493.1204833984375 459.8448791503906Q520.2505493164062 412.31982421875 520.2505493164062 347.8997802734375V250.26971435546875H179.3006591796875V202.1002197265625Q179.3006591796875 139.83050537109375 210.6204833984375 107.01068115234375Q241.9403076171875 74.19085693359375 300.63006591796875 74.19085693359375Q349.0596923828125 74.19085693359375 378.8544616699219 91.32571411132812Q408.64923095703125 108.4605712890625 415.64923095703125 142.1002197265625H517.6204833984375Q506.73028564453125 72.47015380859375 447.18017578125 31.235076904296875Q387.63006591796875 -10 300.21002197265625 -10ZM420.6993408203125 313.840087890625V348.31982421875Q420.6993408203125 410.3795166015625 390.08953857421875 443.6993408203125Q359.479736328125 477.0191650390625 300.21002197265625 477.0191650390625Q241.73028564453125 477.0191650390625 210.51547241210938 443.48931884765625Q179.3006591796875 409.95947265625 179.3006591796875 347.8997802734375V321.840087890625L428.32940673828125 322.2601318359375Z" transform="translate(262.40 95.00) scale(0.01650 -0.01650)"/><path d="M104.90936279296875 0V550H203.83050537109375V445H228.40087890625L196.4605712890625 380.21002197265625Q196.4605712890625 469.21002197265625 235.48562622070312 514.6050109863281Q274.51068115234375 560 351.1407470703125 560Q438.9808349609375 560 490.27081298828125 505.3949890136719Q541.560791015625 450.78997802734375 541.560791015625 356.31982421875V320.799560546875H436.8592529296875V347.8997802734375Q436.8592529296875 408.6993408203125 406.82940673828125 441.2041320800781Q376.799560546875 473.70892333984375 322.36993408203125 473.70892333984375Q268.31024169921875 473.70892333984375 237.91046142578125 440.80914306640625Q207.51068115234375 407.90936279296875 207.51068115234375 347.8997802734375V0Z" transform="translate(272.30 95.00) scale(0.01650 -0.01650)"/><path d="M300 258.31982421875Q260.31982421875 258.31982421875 236.76971435546875 281.4749450683594Q213.2196044921875 304.63006591796875 213.2196044921875 343.520263671875Q213.2196044921875 384.200439453125 236.76971435546875 408.04052734375Q260.31982421875 431.880615234375 300.0 431.880615234375Q339.89019775390625 431.880615234375 363.3352966308594 408.04052734375Q386.7803955078125 384.200439453125 386.7803955078125 343.520263671875Q386.7803955078125 304.63006591796875 363.3352966308594 281.4749450683594Q339.89019775390625 258.31982421875 300 258.31982421875Z" transform="translate(292.10 95.00) scale(0.01650 -0.01650)"/><path d="M360 0Q286.26971435546875 0 244.98452758789062 40.1002197265625Q203.6993408203125 80.200439453125 203.6993408203125 152.35076904296875V456.86883544921875H50.799560546875V550H203.6993408203125V705H306.3006591796875V550H523.1503295898438V456.86883544921875H306.3006591796875V152.35076904296875Q306.3006591796875 93.13116455078125 363.15032958984375 93.13116455078125H513.1503295898438V0Z" transform="translate(311.90 95.00) scale(0.01650 -0.01650)"/><path d="M300.21002197265625 -10Q233.52984619140625 -10 183.76971435546875 16.315032958984375Q134.00958251953125 42.63006591796875 106.8795166015625 90.55010986328125Q79.74945068359375 138.47015380859375 79.74945068359375 202.1002197265625V347.8997802734375Q79.74945068359375 412.31982421875 106.8795166015625 459.8448791503906Q134.00958251953125 507.36993408203125 183.76971435546875 533.6849670410156Q233.52984619140625 560 300.21002197265625 560Q366.89019775390625 560 416.4403076171875 533.6849670410156Q465.99041748046875 507.36993408203125 493.1204833984375 459.8448791503906Q520.2505493164062 412.31982421875 520.2505493164062 347.8997802734375V250.26971435546875H179.3006591796875V202.1002197265625Q179.3006591796875 139.83050537109375 210.6204833984375 107.01068115234375Q241.9403076171875 74.19085693359375 300.63006591796875 74.19085693359375Q349.0596923828125 74.19085693359375 378.8544616699219 91.32571411132812Q408.64923095703125 108.4605712890625 415.64923095703125 142.1002197265625H517.6204833984375Q506.73028564453125 72.47015380859375 447.18017578125 31.235076904296875Q387.63006591796875 -10 300.21002197265625 -10ZM420.6993408203125 313.840087890625V348.31982421875Q420.6993408203125 410.3795166015625 390.08953857421875 443.6993408203125Q359.479736328125 477.0191650390625 300.21002197265625 477.0191650390625Q241.73028564453125 477.0191650390625 210.51547241210938 443.48931884765625Q179.3006591796875 409.95947265625 179.3006591796875 347.8997802734375V321.840087890625L428.32940673828125 322.2601318359375Z" transform="translate(321.80 95.00) scale(0.01650 -0.01650)"/><path d="M303.78997802734375 -10Q236.31982421875 -10 185.66470336914062 15.525054931640625Q135.00958251953125 41.05010986328125 107.3795166015625 88.97015380859375Q79.74945068359375 136.89019775390625 79.74945068359375 202.1002197265625V347.8997802734375Q79.74945068359375 414.10980224609375 107.3795166015625 461.52984619140625Q135.00958251953125 508.94989013671875 185.66470336914062 534.4749450683594Q236.31982421875 560 303.78997802734375 560Q401.73028564453125 560 461.200439453125 508.159912109375Q520.6705932617188 456.31982421875 523.880615234375 366.84967041015625H421.279296875Q418.279296875 416.06927490234375 387.45947265625 442.7840881347656Q356.6396484375 469.4989013671875 303.78997802734375 469.4989013671875Q247.73028564453125 469.4989013671875 215.04052734375 438.2041320800781Q182.35076904296875 406.90936279296875 182.35076904296875 348.68975830078125V202.1002197265625Q182.35076904296875 144.09063720703125 215.04052734375 112.29586791992188Q247.73028564453125 80.5010986328125 303.78997802734375 80.5010986328125Q356.6396484375 80.5010986328125 387.45947265625 107.50588989257812Q418.279296875 134.51068115234375 421.279296875 183.15032958984375H523.880615234375Q520.6705932617188 93.68017578125 461.200439453125 41.840087890625Q401.73028564453125 -10 303.78997802734375 -10Z" transform="translate(331.70 95.00) scale(0.01650 -0.01650)"/><path d="M86.5394287109375 0V730H189.1407470703125V550L188.09063720703125 445H212.3411865234375L188.09063720703125 421.0596923828125Q188.09063720703125 487.10980224609375 227.3006591796875 523.5549011230469Q266.51068115234375 560 335.3006591796875 560Q417.67059326171875 560 466.5655822753906 507.94989013671875Q515.4605712890625 455.8997802734375 515.4605712890625 366.84967041015625V0H412.8592529296875V355.799560546875Q412.8592529296875 411.439208984375 383.24945068359375 442.04901123046875Q353.6396484375 472.6588134765625 302.36993408203125 472.6588134765625Q249.73028564453125 472.6588134765625 219.43551635742188 440.0740661621094Q189.1407470703125 407.48931884765625 189.1407470703125 347.8997802734375V0Z" transform="translate(341.60 95.00) scale(0.01650 -0.01650)"/><path d="M378.15032958984375 0Q328.05010986328125 0 290.36993408203125 20.155120849609375Q252.68975830078125 40.31024169921875 231.74465942382812 77.200439453125Q210.799560546875 114.09063720703125 210.799560546875 163.40087890625V636.8688354492188H28.94989013671875V730H313.40087890625V163.40087890625Q313.40087890625 130.87103271484375 331.8758239746094 112.0010986328125Q350.35076904296875 93.13116455078125 381.3006591796875 93.13116455078125H553.1503295898438V0Z" transform="translate(361.40 95.00) scale(0.01650 -0.01650)"/><path d="M300.21002197265625 -10Q233.52984619140625 -10 183.76971435546875 16.315032958984375Q134.00958251953125 42.63006591796875 106.8795166015625 90.55010986328125Q79.74945068359375 138.47015380859375 79.74945068359375 202.1002197265625V347.8997802734375Q79.74945068359375 412.31982421875 106.8795166015625 459.8448791503906Q134.00958251953125 507.36993408203125 183.76971435546875 533.6849670410156Q233.52984619140625 560 300.21002197265625 560Q366.89019775390625 560 416.4403076171875 533.6849670410156Q465.99041748046875 507.36993408203125 493.1204833984375 459.8448791503906Q520.2505493164062 412.31982421875 520.2505493164062 347.8997802734375V250.26971435546875H179.3006591796875V202.1002197265625Q179.3006591796875 139.83050537109375 210.6204833984375 107.01068115234375Q241.9403076171875 74.19085693359375 300.63006591796875 74.19085693359375Q349.0596923828125 74.19085693359375 378.8544616699219 91.32571411132812Q408.64923095703125 108.4605712890625 415.64923095703125 142.1002197265625H517.6204833984375Q506.73028564453125 72.47015380859375 447.18017578125 31.235076904296875Q387.63006591796875 -10 300.21002197265625 -10ZM420.6993408203125 313.840087890625V348.31982421875Q420.6993408203125 410.3795166015625 390.08953857421875 443.6993408203125Q359.479736328125 477.0191650390625 300.21002197265625 477.0191650390625Q241.73028564453125 477.0191650390625 210.51547241210938 443.48931884765625Q179.3006591796875 409.95947265625 179.3006591796875 347.8997802734375V321.840087890625L428.32940673828125 322.2601318359375Z" transform="translate(371.30 95.00) scale(0.01650 -0.01650)"/><path d="M247.2275162633755 -10Q161.00958251953125 -10 111.32461547851562 34.61328457919034Q61.6396484375 79.22656915838068 61.6396484375 155.4200439453125Q61.6396484375 233.68017578125 113.21481323242188 277.7851867675781Q164.78997802734375 321.89019775390625 254.6204833984375 321.89019775390625H412.8592529296875V373.94989013671875Q412.8592529296875 420.95947265625 384.0394287109375 446.6742858886719Q355.2196044921875 472.38909912109375 303 472.38909912109375Q257.04257918648096 472.38909912109375 226.09166312839673 452.8341979980469Q195.1407470703125 433.279296875 190.1407470703125 399.74945068359375H88.58953857421875Q97.58953857421875 473.26971435546875 156.74465942382812 516.6348571777344Q215.8997802734375 560 305.63006591796875 560Q402.73028564453125 560 459.0954284667969 510.4749450683594Q515.4605712890625 460.94989013671875 515.4605712890625 376.31982421875V0H415.48931884765625V101.84967041015625H398.59912109375L415.6993408203125 121.05010986328125Q415.6993408203125 60.56544377253606 369.6173417503268 25.28272188626803Q323.5353426803411 -10 247.2275162633755 -10ZM276.31024169921875 69.19085693359375Q336.1673425125749 69.19085693359375 374.5132977211312 99.40567016601562Q412.8592529296875 129.6204833984375 412.8592529296875 177.07724857330322V251.10980224609375H256.83050537109375Q214.1407470703125 251.10980224609375 189.19085693359375 227.26492309570312Q164.240966796875 203.4200439453125 164.240966796875 162.77317745584838Q164.240966796875 119.29048307177047 193.90636309455422 94.24067000268211Q223.57175939223345 69.19085693359375 276.31024169921875 69.19085693359375Z" transform="translate(381.20 95.00) scale(0.01650 -0.01650)"/><path d="M262.74945068359375 -10Q180.5394287109375 -10 130.14443969726562 45.63006591796875Q79.74945068359375 101.2601318359375 79.74945068359375 196.31024169921875V352.8997802734375Q79.74945068359375 448.52984619140625 129.74945068359375 504.2649230957031Q179.74945068359375 560 262.74945068359375 560Q330.74945068359375 560 371.32940673828125 522.4749450683594Q411.90936279296875 484.94989013671875 411.90936279296875 421.0596923828125L390.3389892578125 445H413.48931884765625L410.8592529296875 572.1002197265625V730H513.4605712890625V0H411.90936279296875V105H390.3389892578125L411.90936279296875 128.9403076171875Q411.90936279296875 64.2601318359375 371.32940673828125 27.13006591796875Q330.74945068359375 -10 262.74945068359375 -10ZM297.78997802734375 78.921142578125Q350.6396484375 78.921142578125 380.74945068359375 111.50588989257812Q410.8592529296875 144.09063720703125 410.8592529296875 202.1002197265625V347.8997802734375Q410.8592529296875 405.90936279296875 380.74945068359375 438.4941101074219Q350.6396484375 471.078857421875 297.78997802734375 471.078857421875Q243.9403076171875 471.078857421875 213.14553833007812 439.2840881347656Q182.35076904296875 407.48931884765625 182.35076904296875 347.8997802734375V202.1002197265625Q182.35076904296875 142.51068115234375 213.14553833007812 110.71591186523438Q243.9403076171875 78.921142578125 297.78997802734375 78.921142578125Z" transform="translate(391.10 95.00) scale(0.01650 -0.01650)"/></g><rect x="5" y="120" width="650" height="1" fill="#e8e4dd"/><rect x="5" y="120" width="34" height="2" fill="#964520"/></svg>